<svg width="24" height="24" viewBox="0 0 24 24" fill="none" xmlns="http://www.w3.org/2000/svg">
<circle cx="19.5" cy="16.5" r="4.5" fill="#6B85A7"/>
<circle cx="4.5" cy="16.5" r="4.5" fill="#6B85A7"/>
<path d="M8.14922 9H1.91421C1.649 9 1.38711 9.10117 1.24239 9.32343C1.11423 9.52025 1 9.76584 1 10C1 10.2342 1.11423 10.4797 1.24239 10.6766C1.38711 10.8988 1.649 11 1.91421 11H2.58579C2.851 11 3.10536 11.1054 3.29289 11.2929L3.70711 11.7071C3.89464 11.8946 4 12.149 4 12.4142V12.9289C4 12.9763 3.99664 13.0235 3.98995 13.0704L3.51005 16.4296C3.50336 16.4765 3.49919 16.5237 3.50279 16.5709C3.52937 16.9194 3.7534 17.5 4.5 17.5C5.3 17.5 5.5 16.8333 5.5 16.5V15.5C5.5 15.1 6.16667 15 6.5 15H11.5C13.0066 15 13.7448 14.1133 13.965 13.5924C13.9906 13.5317 14.0165 13.4712 14.0491 13.414L14.9213 11.8878C15.3452 11.146 16.4439 11.243 16.7313 12.0476L18.5 17C18.6667 17.3333 19.2 17.9 20 17.5C20.7519 17.124 20.6793 16.4241 20.5295 16.0646C20.5113 16.0209 20.4925 15.9775 20.4775 15.9326L18.9387 11.3162C18.7229 10.6687 19.28 9.90461 19.6573 9.33581C19.8594 9.03113 20 8.59992 20 8C20 6.75353 18.7862 6.23535 17.777 6.06721C17.3243 5.99181 16.9229 5.68759 16.7968 5.2464C16.5865 4.51081 16.2848 3.56956 16 3C15.6 2.2 14.8333 2 14.5 2H11.9142C11.649 2 11.3871 2.10117 11.2424 2.32343C11.1142 2.52025 11 2.76584 11 3C11 3.23416 11.1142 3.47975 11.2424 3.67657C11.3871 3.89883 11.649 4 11.9142 4H13.2792C13.7097 4 14.0918 4.27543 14.2279 4.68377L14.5613 5.68377C14.7771 6.3313 14.2951 7 13.6126 7H11.3508C11.1237 7 10.9034 7.07728 10.7261 7.21913L8.77391 8.78087C8.5966 8.92272 8.37629 9 8.14922 9Z" fill="#E6EDF6"/>
</svg>
